<?xml version="1.0" encoding="UTF-8" standalone="no"?><!DOCTYPE svg PUBLIC "-//W3C//DTD SVG 1.1//EN" "http://www.w3.org/Graphics/SVG/1.1/DTD/svg11.dtd"><svg width="100%" height="100%" viewBox="0 0 60 39" version="1.1" xmlns="http://www.w3.org/2000/svg" xmlns:xlink="http://www.w3.org/1999/xlink" xml:space="preserve" xmlns:serif="http://www.serif.com/" style="fill-rule:evenodd;clip-rule:evenodd;stroke-linejoin:round;stroke-miterlimit:2;"><path d="M59.49,9.142L50.63,0.666C50.593,0.628 50.539,0.609 50.494,0.579C50.456,0.552 50.422,0.522 50.376,0.503C50.281,0.465 50.175,0.442 50.068,0.442L34.116,0.442C32.593,0.442 31.355,1.68 31.355,3.202L31.355,15.996L28.545,15.996L28.545,9.73C28.545,9.51 28.454,9.301 28.294,9.145L19.443,0.662C19.405,0.624 19.352,0.605 19.306,0.575C19.268,0.548 19.234,0.518 19.188,0.499C19.093,0.461 18.987,0.438 18.881,0.438L2.932,0.438C1.409,0.438 0.171,1.676 0.171,3.199L0.171,36.057C0.171,37.58 1.409,38.818 2.932,38.818L25.792,38.818C27.315,38.818 28.553,37.58 28.553,36.057L28.553,27.923L31.363,27.923L31.363,36.057C31.363,37.58 32.601,38.818 34.123,38.818L56.983,38.818C58.506,38.818 59.744,37.58 59.744,36.057L59.744,9.723C59.737,9.502 59.645,9.293 59.49,9.142Z" style="fill-rule:nonzero;"/><path d="M26.935,36.061C26.935,36.695 26.422,37.208 25.788,37.208L2.928,37.208C2.298,37.208 1.781,36.695 1.781,36.061L1.781,3.199C1.781,2.568 2.294,2.052 2.928,2.052L18.076,2.052L18.076,9.818C18.076,10.262 18.436,10.626 18.884,10.626L26.935,10.626L26.935,15.992L22.112,15.992L22.112,14.014C22.112,13.729 21.964,13.467 21.721,13.322C21.478,13.178 21.178,13.171 20.927,13.303L10.864,18.669C10.602,18.81 10.439,19.083 10.439,19.379C10.439,19.675 10.602,19.953 10.864,20.093L20.927,25.459C21.178,25.592 21.482,25.584 21.721,25.44C21.964,25.296 22.112,25.03 22.112,24.749L22.112,22.77L38.6,22.763C39.045,22.763 39.405,22.402 39.405,21.954L39.405,20.515L46.947,24.536L39.405,28.558L39.405,27.118C39.405,26.674 39.045,26.31 38.597,26.31L25.606,26.31C25.162,26.31 24.797,26.67 24.797,27.118C24.797,27.563 25.158,27.927 25.606,27.927L26.939,27.927L26.939,36.061L26.935,36.061Z" style="fill:rgb(135,255,175);fill-rule:nonzero;"/><path d="M56.976,37.204L34.116,37.204C33.485,37.204 32.969,36.692 32.969,36.057L32.969,27.923L37.792,27.923L37.792,29.902C37.792,30.187 37.94,30.449 38.183,30.593C38.312,30.669 38.452,30.707 38.597,30.707C38.726,30.707 38.859,30.676 38.976,30.612L49.039,25.246C49.301,25.106 49.465,24.832 49.465,24.532C49.465,24.232 49.301,23.959 49.039,23.818L38.976,18.453C38.726,18.32 38.426,18.327 38.183,18.472C37.94,18.616 37.792,18.882 37.792,19.163L37.792,21.149L21.303,21.156C20.859,21.156 20.498,21.517 20.498,21.965L20.498,23.405L12.961,19.379L20.498,15.358L20.498,16.797C20.498,17.241 20.859,17.606 21.307,17.606L34.306,17.606C34.75,17.606 35.114,17.245 35.114,16.797C35.114,16.353 34.754,15.988 34.306,15.988L32.973,15.988L32.973,3.199C32.973,2.568 33.485,2.052 34.12,2.052L49.267,2.052L49.267,9.818C49.267,10.262 49.628,10.626 50.076,10.626L58.127,10.626L58.127,36.061C58.123,36.692 57.61,37.204 56.976,37.204Z" style="fill:rgb(135,95,175);fill-rule:nonzero;"/><path d="M50.877,3.138L57.018,9.012L50.877,9.012L50.877,3.138Z" style="fill:rgb(135,117,153);fill-rule:nonzero;"/><path d="M19.689,3.138L25.83,9.012L19.689,9.012L19.689,3.138Z" style="fill:rgb(172,218,187);fill-rule:nonzero;"/></svg>
